<?xml version="1.0" encoding="UTF-8"?>
<svg xmlns="http://www.w3.org/2000/svg" xmlns:xlink="http://www.w3.org/1999/xlink" id="Layer_1" x="0px" y="0px" viewBox="0 0 617.6 152.7" style="enable-background:new 0 0 617.6 152.7;" xml:space="preserve">
  <style type="text/css">	.st0{fill:#20376C;}	.st1{enable-background:new    ;}	.st2{fill:#FFFFFF;}	.st3{fill:#F8A21F;}</style>
  <title>TA_new logo</title>
  <path class="st0" d="M239,30.6c-8.6,0-15.6,6.9-15.6,15.5c0,8.6,6.9,15.6,15.5,15.6s15.6-6.9,15.6-15.5c0,0,0,0,0,0  C254.5,37.6,247.6,30.6,239,30.6z M239,50.8c-2.5,0-4.5-2-4.5-4.5c0-2.5,2-4.5,4.5-4.5s4.5,2,4.5,4.5c0,0,0,0,0,0  C243.5,48.8,241.5,50.8,239,50.8z"></path>
  <path class="st0" d="M343.3,30.6c-8.6,0-15.5,6.9-15.5,15.5s6.9,15.5,15.5,15.5c8.6,0,15.5-6.9,15.5-15.5c0,0,0,0,0,0  C358.9,37.6,351.9,30.6,343.3,30.6C343.3,30.6,343.3,30.6,343.3,30.6z M343.3,50.8c-2.5,0-4.5-2-4.5-4.5s2-4.5,4.5-4.5  s4.5,2,4.5,4.5l0,0C347.8,48.8,345.8,50.8,343.3,50.8L343.3,50.8z"></path>
  <path class="st0" d="M217.1,34.1v10.4h-22.1V20.8h11.7c0.6,0,1,0.4,1,1c0,0,0,0,0,0.1v10h7.1C216.1,31.8,217.1,32.9,217.1,34.1  C217.1,34.1,217.1,34.1,217.1,34.1z"></path>
  <path class="st0" d="M195.1,46.7h12.7l0,0v14.9l0,0h-6.9c-3.2,0-5.9-2.6-5.9-5.9V46.7L195.1,46.7z"></path>
  <path class="st0" d="M282.2,31.8v8c0,0.6-0.4,1-1,1c0,0,0,0-0.1,0h-2.6c-0.3,0-0.5,0-0.8,0.1s-0.8,0.1-1.2,0.2  c-0.6,0.1-1.3,0.4-1.8,0.7c-0.4,0.2-0.8,0.5-1.1,0.8c-1.4,1.2-2.2,3.2-2.4,5.8v12.2c0,0.6-0.4,1-1,1h-8.4c-0.6,0-1-0.4-1-1V31.3h6.6  c0.9,0,1.9,0.4,2.5,1c2.5-1.1,5.2-1.7,8-1.6c0.1,0,0.3,0,0.4,0h2.7c0.6,0,1,0.4,1.1,0.9C282.2,31.7,282.2,31.7,282.2,31.8z"></path>
  <path class="st0" d="M282.2,31.8L282.2,31.8c0-0.5-0.4-1-1-1c0,0,0,0-0.1,0h-2.7c-0.1,0-0.3,0-0.4,0h3.1  C281.7,30.8,282.1,31.2,282.2,31.8C282.2,31.7,282.2,31.7,282.2,31.8z"></path>
  <path class="st0" d="M280.8,40.8c0,0-0.1,0-0.1,0H280.8z"></path>
  <path class="st0" d="M309.8,20.8h10.7c0.6,0,1,0.4,1,1v38.8c0,0.6-0.4,1-1,1h-3c-4.2,0-7.7-3.4-7.7-7.6c0,0,0,0,0,0V20.8L309.8,20.8  z"></path>
  <path class="st0" d="M302.4,36.5v25.1h-6.9c-3.2,0-5.9-2.6-5.9-5.9V30.6h6.9C299.7,30.6,302.4,33.2,302.4,36.5z"></path>
  <g class="st1">	<path class="st0" d="M229.3,81.7c4.9,3.8,7.4,9.6,7.4,17.4V128c0,0.4-0.2,0.6-0.6,0.6c-1.8,0-3.4-0.6-4.8-1.8   c-1.4-1.2-2.2-2.7-2.4-4.5c-1.6,2.1-3.4,3.6-5.3,4.6c-2.4,1.2-5.1,2-8.2,2.4c-3.4,0.4-6.5,0.2-9.4-0.6c-3.9-1.1-7-3-9.3-5.6   c-2.3-2.6-3.4-5.8-3.4-9.4c0-4,0.8-7.2,2.5-9.7s4.4-4.4,8-5.8c4-1.4,8.5-2,13.6-1.8c3.6,0.2,7.3,0.7,11.3,1.7   c-0.3-3.8-1.4-6.7-3.2-8.8c-2.4-2.7-5.7-4.1-9.8-4.1c-3.8,0-7.1,0.8-9.8,2.4c-2.2,1.2-4,2.9-5.4,4.9c-0.1,0.2-0.1,0.3-0.3,0.3   s-0.2,0-0.4-0.1c-1.8-0.8-2.9-2.1-3.2-4.1c-0.4-1.8,0.2-3.5,1.6-4.9c4.4-4.2,10.2-6.2,17.4-6.2C221.1,77.3,225.6,78.8,229.3,81.7z    M205.9,106c-3,1.6-4.5,4-4.5,7.2c0,2.2,0.9,4,2.7,5.5c2.3,1.9,6,2.9,10.8,2.9c4.1,0,7.4-1.2,9.9-3.6c2.6-2.5,3.9-5.5,4-9v-3.4   c-0.3-0.1-2-0.4-5.2-0.9c-2.7-0.5-6.3-0.6-11-0.3C210.3,104.2,208.1,104.8,205.9,106z"></path>	<path class="st0" d="M286.2,80.9c3.5,2.2,6.3,4.8,8.3,7.9c0.2,0.2,0.2,0.5,0.2,0.8s-0.3,0.6-0.6,0.7l-4.8,3   c-0.6,0.3-1.1,0.2-1.5-0.4c-1.7-2.4-3.8-4.3-6.3-5.7c-2.5-1.3-5.2-2-8.2-2c-4.9,0-9.1,1.8-12.6,5.3c-1.6,1.7-2.9,3.6-3.8,5.9   s-1.4,4.6-1.4,7.1c0,4.9,1.7,9.2,5.2,12.9c3.4,3.6,7.6,5.4,12.6,5.4c2.9,0,5.6-0.7,8.1-2c2.5-1.3,4.7-3.2,6.3-5.7   c0.3-0.7,0.8-0.8,1.5-0.4l4.8,3c0.3,0.1,0.5,0.4,0.6,0.7s0,0.6-0.1,0.8c-1.9,3-4.5,5.5-7.8,7.5c-4,2.6-8.5,3.9-13.4,3.9   c-3.5,0-6.9-0.7-10-2c-3.1-1.3-5.9-3.2-8.2-5.6c-2.3-2.4-4.2-5.2-5.5-8.3s-1.9-6.6-1.9-10.1c0-3.6,0.6-7,1.9-10.2s3.1-6,5.5-8.3   c2.4-2.4,5.1-4.2,8.2-5.6c3.1-1.3,6.5-2,10-2C278,77.3,282.3,78.5,286.2,80.9z"></path>	<path class="st0" d="M339.5,81.7c4.9,3.8,7.4,9.6,7.4,17.4V128c0,0.4-0.2,0.6-0.6,0.6c-1.8,0-3.4-0.6-4.8-1.8   c-1.4-1.2-2.2-2.7-2.4-4.5c-1.6,2.1-3.4,3.6-5.3,4.6c-2.4,1.2-5.1,2-8.2,2.4c-3.4,0.4-6.5,0.2-9.4-0.6c-3.9-1.1-7-3-9.3-5.6   c-2.3-2.6-3.4-5.8-3.4-9.4c0-4,0.8-7.2,2.5-9.7s4.4-4.4,8-5.8c4-1.4,8.5-2,13.6-1.8c3.6,0.2,7.3,0.7,11.3,1.7   c-0.3-3.8-1.4-6.7-3.2-8.8c-2.4-2.7-5.7-4.1-9.8-4.1c-3.8,0-7.1,0.8-9.8,2.4c-2.2,1.2-4,2.9-5.4,4.9c-0.1,0.2-0.1,0.3-0.3,0.3   s-0.2,0-0.4-0.1c-1.8-0.8-2.9-2.1-3.2-4.1c-0.4-1.8,0.2-3.5,1.6-4.9c4.4-4.2,10.2-6.2,17.4-6.2C331.3,77.3,335.8,78.8,339.5,81.7z    M316.1,106c-3,1.6-4.5,4-4.5,7.2c0,2.2,0.9,4,2.7,5.5c2.3,1.9,6,2.9,10.8,2.9c4.1,0,7.4-1.2,9.9-3.6c2.6-2.5,3.9-5.5,4-9v-3.4   c-0.3-0.1-2-0.4-5.2-0.9c-2.7-0.5-6.3-0.6-11-0.3C320.5,104.2,318.3,104.8,316.1,106z"></path>	<path class="st0" d="M407.1,60.5c0.8,0,1.1,0.4,1.1,1.1V128c0,0.4-0.2,0.6-0.6,0.6c-2.1,0-3.8-0.7-5.2-2.1   c-1.4-1.4-2.1-3.1-2.1-5.2v-1.2c-1,2.2-2.9,4.2-5.6,6c-3.4,2.3-7.3,3.5-11.6,3.5c-3.5,0-6.8-0.7-9.9-2c-3.1-1.3-5.7-3.2-8.1-5.6   c-2.3-2.4-4.1-5.2-5.3-8.3c-1.3-3.2-1.9-6.6-1.9-10.1c0-3.5,0.6-6.8,1.9-10c1.3-3.2,3.1-6,5.4-8.4c4.8-5.1,10.8-7.7,17.9-7.7   c4.2,0,8.1,1.2,11.5,3.5c2.1,1.5,4,3.5,5.7,6.1V61.6c0-0.7,0.4-1.1,1.2-1.1H407.1z M371,90.5c-1.6,1.7-2.8,3.6-3.7,5.9   c-0.9,2.2-1.4,4.6-1.4,7.1c0,5,1.7,9.3,5.1,12.9c1.6,1.7,3.4,3,5.5,4c2.1,1,4.3,1.4,6.7,1.4c4.8,0,8.9-1.8,12.3-5.4   c3.3-3.6,5-7.9,5-12.9c0-2.5-0.4-4.8-1.3-7.1s-2.1-4.2-3.7-5.9c-3.4-3.5-7.5-5.3-12.3-5.3C378.4,85.2,374.3,87,371,90.5z"></path>	<path class="st0" d="M457,81.2c3.9,2.6,6.9,6,9,10.3c2.1,4.3,3,8.9,2.9,13.9c0,0.4-0.1,0.7-0.4,1c-0.3,0.3-0.6,0.4-0.9,0.4h-40.3   c0.8,4.7,2.9,8.5,6.2,11.2c3.3,2.7,7.5,4.1,12.4,4.1c6.9,0,12.3-2.5,16.2-7.6c0.3-0.4,0.6-0.6,0.9-0.6c1.7,0.9,2.6,2.3,2.9,4.1   c0.2,1.8-0.3,3.4-1.7,4.6c-4.8,4.6-10.9,6.9-18.3,6.9c-7.7,0-14.1-2.4-19.1-7.3s-7.5-11.1-7.5-18.8c0-4.7,1.1-9,3.2-13   c2.1-4,5.1-7.2,8.9-9.6c3.8-2.4,8-3.6,12.6-3.6C448.8,77.3,453.1,78.6,457,81.2z M433,89.1c-3,2.9-4.9,6.5-5.7,10.9h33.3   c-0.8-4.4-2.7-8-5.8-10.9s-6.7-4.4-10.9-4.4C439.7,84.7,436.1,86.2,433,89.1z"></path></g>
  <g class="st1">	<path class="st0" d="M551.8,82.9c4.2,4.3,6.3,10.6,6.3,18.9v25.6c0,0.8-0.4,1.2-1.1,1.2h-5.6c-0.7,0-1-0.4-1-1.2v-25.6   c0-4.8-1-8.6-2.9-11.4c-2.3-3.4-5.9-5.1-10.8-5.1c-3.7,0-6.7,1.2-9.1,3.7c-2.7,2.7-4.2,6.6-4.6,11.7v26.8c0,0.8-0.4,1.2-1.2,1.2   h-5.5c-0.7,0-1.1-0.4-1.1-1.2v-25.6c0-4.8-1-8.7-2.9-11.4c-2.3-3.4-5.9-5.1-10.9-5.1c-3.6,0-6.7,1.2-9.1,3.7   c-2.7,2.7-4.3,6.7-4.6,11.7v26.8c0,0.3-0.1,0.6-0.3,0.8s-0.5,0.3-0.8,0.3h-5.5c-0.3,0-0.6-0.1-0.8-0.3s-0.4-0.5-0.4-0.8V78.8   c0-0.4,0.2-0.6,0.6-0.6c1.9,0,3.5,0.6,4.8,1.9c1.3,1.3,2.1,2.8,2.2,4.7c1.7-2.2,3.7-4.1,6.1-5.4c2.4-1.4,5-2.1,7.7-2.1   c4.2,0,8,0.9,11.3,2.7c3.3,1.8,5.8,4.6,7.6,8.4c0.2-0.6,0.6-1.4,1-2.3c1.5-2.7,3.6-4.9,6.3-6.5c2.7-1.6,5.7-2.4,9-2.4   C542.9,77.3,548,79.2,551.8,82.9z"></path></g>
  <g class="st1">	<path class="st0" d="M613,78.2c0.4,0,0.8,0.2,1,0.5c0.2,0.4,0.3,0.7,0.1,1.1l-22.4,54.5c-1.6,4-4.6,6.6-9,7.7   c-1.3,0.3-2.4,0.5-3.3,0.5c-1.1,0-2-0.1-2.8-0.3c-0.4,0-0.6-0.2-0.8-0.5s-0.2-0.7,0-1l2.1-5.3c0.2-0.5,0.6-0.8,1.1-0.8   c1.1,0,2.1-0.2,3-0.6c1.2-0.4,2.2-1.4,2.9-2.9l1.9-5l-20.2-46.3c-0.2-0.4-0.2-0.7,0.1-1.1c0.2-0.4,0.6-0.5,1-0.5h6   c0.8,0,1.3,0.3,1.5,1l15.4,37.3l14.7-37.2c0.2-0.7,0.7-1.1,1.6-1.1H613z"></path></g>
  <path class="st0" d="M152.7,90.7v55.6c0,3.5-2.9,6.4-6.4,6.4H6.4c-3.5,0-6.4-2.9-6.4-6.4V6.4C0,2.9,2.9,0,6.4,0c0,0,0,0,0,0h139.9  c3.5,0,6.4,2.9,6.4,6.4L152.7,90.7z"></path>
  <polygon class="st2" points="51.5,122.9 25.2,96.6 70.8,51 116.4,96.6 90.1,122.9 70.8,103.6 "></polygon>
  <path class="st3" d="M77.2,44.9l26.3,26.3l19.3-19.3l-18.2-18.2c-4.4-4.5-11.7-4.5-16.1,0c0,0,0,0,0,0L77.2,44.9z"></path>
</svg>
